<svg xmlns:dc="http://purl.org/dc/elements/1.1/" xmlns:cc="http://creativecommons.org/ns#" xmlns:rdf="http://www.w3.org/1999/02/22-rdf-syntax-ns#" xmlns:svg="http://www.w3.org/2000/svg" xmlns="http://www.w3.org/2000/svg" xmlns:sodipodi="http://sodipodi.sourceforge.net/DTD/sodipodi-0.dtd" xmlns:inkscape="http://www.inkscape.org/namespaces/inkscape" width="64" height="64" viewBox="0 0 16.933333 16.933334" version="1.1" id="svg8" inkscape:version="0.92.3 (2405546, 2018-03-11)" sodipodi:docname="14-Agreement.svg" inkscape:export-filename="/home/wanzabuyumna/@WANZ_DESIGN/NICON STUDIO MAGANG/Style Line/Style Line/Icon 8/Icon 8.png" inkscape:export-xdpi="96" inkscape:export-ydpi="96">
  <defs id="defs2"></defs>
  <sodipodi:namedview id="base" pagecolor="#ffffff" bordercolor="#959595" borderopacity="1" inkscape:pageopacity="0" inkscape:pageshadow="2" inkscape:zoom="9.0666675" inkscape:cx="28.580925" inkscape:cy="26.400582" inkscape:document-units="px" inkscape:current-layer="layer1" inkscape:document-rotation="0" showgrid="false" units="px" inkscape:window-width="1920" inkscape:window-height="1040" inkscape:window-x="0" inkscape:window-y="0" inkscape:window-maximized="1" inkscape:pagecheckerboard="0" inkscape:snap-bbox="true" inkscape:bbox-nodes="true">
    <inkscape:grid type="xygrid" id="grid822"></inkscape:grid>
  </sodipodi:namedview>
  <metadata id="metadata5">
    <rdf:rdf>
      <cc:work rdf:about="">
        <dc:format>image/svg+xml</dc:format>
        <dc:type rdf:resource="http://purl.org/dc/dcmitype/StillImage"></dc:type>
      </cc:work>
    </rdf:rdf>
  </metadata>
  <g inkscape:label="14-Agreement" inkscape:groupmode="layer" id="layer1">
    <path style="opacity: 1; fill: rgb(102, 0, 0); fill-opacity: 1; stroke: none; stroke-width: 2; stroke-linecap: round; stroke-linejoin: round; stroke-miterlimit: 4; stroke-dasharray: none; stroke-dashoffset: 0; stroke-opacity: 1;" d="m 16.003906,0 c -3.311311,0 -6,2.6953536 -6,6.0019531 V 47.994141 H 0.99609375 C 0.44352076,47.99614 -0.00212334,48.447569 0,49 v 8.998047 C 0,61.304646 2.6965033,64 6.0039062,64 c 10.0021208,0 37.0076538,-8e-6 47.0097658,0 3.307404,8e-6 5.994143,-2.67166 5.99414,-6.001953 V 51 h 3.988282 C 63.551575,51.0022 64.002192,50.551442 64,49.996094 V 32.994141 c -0.0019,-0.552465 -0.451309,-0.998275 -1.003906,-0.996094 H 59.007812 V 14.003906 h 2.001954 C 61.565216,14.006041 62.015807,13.555324 62.013672,13 V 6.0019531 C 62.013672,2.6953536 59.317166,0 56.009766,0 Z m 0,2 c 2.234143,0.00393 3.998047,1.7712124 3.998047,4.0019531 V 13 c -0.0021,0.555324 0.448447,1.006041 1.003906,1.003906 h 36.007813 c 7.56e-4,6.236723 0,12.926442 0,18.990235 -0.899554,-0.180284 -1.843643,-0.598181 -2.634766,-0.914063 -1.057066,-0.430571 -2.316393,-0.958827 -3.654297,-1.488281 l 2.753907,-4.769531 c 0.822523,-1.42431 0.325038,-3.27533 -1.09961,-4.097657 l -1.734375,-0.996093 c -1.424659,-0.822324 -3.277082,-0.332511 -4.099609,1.091796 l -6.714844,11.626954 -8.820312,5.091796 c -1.90453,1.09932 -2.568337,3.558811 -1.46875,5.462891 0.58573,1.014274 1.557466,1.680481 2.626953,1.912109 -0.09764,0.343562 -0.153749,0.70471 -0.154297,1.078126 -0.286023,0.596035 -0.350181,1.256541 -0.451172,1.84375 -0.235041,1.772934 -0.360828,3.400899 -0.490234,5.160156 l -3.808594,0.002 c -0.52455,-0.592048 -1.205262,-1.01031 -2.261719,-0.984375 -0.32321,0.03364 -0.685271,0.101197 -1.007812,0.232422 -0.323551,-0.832717 -0.825288,-1.454083 -1.615235,-1.929688 -1.287807,-0.743221 -2.902102,-0.598924 -4.179687,0.251953 -1.277608,0.850882 -2.092974,2.269381 -2.191407,3.800782 -0.03598,0.550125 0.379515,1.02515 0.929688,1.0625 0.552968,0.0359 1.029032,-0.38451 1.0625,-0.9375 0.05656,-0.880014 0.572735,-1.776849 1.306641,-2.265625 0.734004,-0.488848 1.505206,-0.506104 2.074218,-0.177735 0.568958,0.328441 0.92754,1.00289 0.871094,1.882813 -0.07015,0.962475 1.131697,1.45741 1.759766,0.724609 0.285509,-0.326816 0.727862,-0.6051 1.033203,-0.642578 0.166715,-0.02041 0.509215,-0.04196 0.90039,0.539063 0.185022,0.275716 0.494074,0.442112 0.826172,0.443359 h 5.148438 c 0.212353,0.01965 0.436818,-0.0291 0.640625,-0.164063 2.057907,-1.396652 4.482953,-3.024069 5.818359,-4.214843 C 38.593054,51.423134 38.755346,51.279258 38.927734,51 h 8.089844 c 2.941984,0 6.48438,-0.836589 9.996094,-0.982422 v 7.980469 c 0,2.200017 -1.766235,4.000004 -4,4 -9.079982,-8e-6 -30.865507,0 -42.529297,0 0.919436,-1.042337 1.519531,-2.438537 1.519531,-4 V 6.0019531 C 12.003906,3.7687254 13.766236,2 16.003906,2 Z m 1,15.996094 C 16.448426,17.993894 15.99781,18.446606 16,19.001953 c 0.0019,0.552462 0.451313,0.998272 1.003906,0.996094 h 24.50586 c 0.549717,-0.0019 0.996153,-0.446512 0.998046,-0.996094 0.0022,-0.552461 -0.445449,-1.003961 -0.998046,-1.005859 z m 0,6.001953 C 16.448426,23.995847 15.99781,24.446606 16,25.001953 c 0.0019,0.552462 0.451313,0.998272 1.003906,0.996094 h 20.001953 c 0.552598,0.0022 1.002006,-0.443631 1.003907,-0.996094 0.0022,-0.555347 -0.448422,-1.006097 -1.003907,-1.003906 z m 28.777344,3.154297 3.462891,2 -8,13.845703 H 36.630859 Z M 17.003906,30 C 16.451313,29.9978 16.001899,30.443629 16,30.996094 c -0.0022,0.555345 0.448426,1.004141 1.003906,1.001953 h 15.50586 c 0.552596,-0.0019 0.99827,-0.449496 0.996093,-1.001953 C 33.50397,30.44651 33.059478,30.00189 32.509766,30 Z m 32.708985,2.337891 c 1.406411,0.554059 2.753679,1.124279 3.90625,1.59375 1.076095,0.466529 2.78752,1.112638 3.394531,1.064453 V 48.013672 C 53.205416,48.150415 49.572123,49 47.017578,49 H 36.015625 c -1.12554,0 -2,-0.876686 -2,-2.001953 0,-1.125256 0.874464,-2 2,-2 h 7.990234 c 0.552594,0.0022 1.002009,-0.44364 1.003907,-0.996094 0.0022,-0.555352 -0.448426,-1.006098 -1.003907,-1.003906 H 43.556641 Z M 16,36.996094 C 15.9978,37.551439 16.448425,38.002192 17.003906,38 h 11.001953 c 0.552598,-0.0019 0.998273,-0.451445 0.996094,-1.003906 C 29.000052,36.446513 28.555574,36.00189 28.005859,36 H 16.978515 C 16.424357,36.024567 16.00184,36.460894 16,36.996094 Z m 21.833984,-0.09375 -3.828125,6.630859 c -0.202393,0.119433 -0.40227,0.272882 -0.613281,0.431641 -0.836205,0.150538 -1.676347,-0.19563 -2.117187,-0.958985 -0.562768,-0.974479 -0.244267,-2.177602 0.730468,-2.740234 z m -20.814453,9.091797 c -0.555483,-0.0022 -1.006096,0.448565 -1.003906,1.003906 0.0019,0.552465 0.451309,0.998271 1.003906,0.996094 h 9.988281 c 0.549715,-0.0019 0.996158,-0.446513 0.998047,-0.996094 0.0022,-0.552454 -0.44545,-1.002005 -0.998047,-1.003906 z m 16.40625,4.044921 c 0.689594,0.589004 1.577729,0.94858 2.546875,0.958985 -0.946344,0.721043 -2.037413,1.475695 -2.8125,2.001953 0.06629,-1.072804 0.150576,-1.865405 0.265625,-2.960938 z" transform="scale(0.26458334)" id="path840" inkscape:connector-curvature="0" sodipodi:nodetypes="cccccccccccccccccccccccccccccccccccccccccccccccccccccccccccccccccccccccccccccccccccccccccccccccccccccccccccccccccccccccccccccccccc"></path>
  </g>
</svg>