<svg xmlns="http://www.w3.org/2000/svg" width="1706.266" height="1377.279" viewBox="0 0 1706.266 1377.279">
  <g id="Layer_x0020_1" transform="translate(-646.864 -811.36)">
    <path id="Path_24" data-name="Path 24" d="M1773.39,811.36,1360.18,922.08l42.43,158.33,413.2-110.71Z" fill-rule="evenodd" style="fill: rgb(102, 0, 0);"></path>
    <path id="Path_25" data-name="Path 25" d="M1903.97,1298.69,1490.76,1409.4l42.42,158.34,413.21-110.72Z" fill-rule="evenodd" style="fill: rgb(102, 0, 0);"></path>
    <path id="Path_26" data-name="Path 26" d="M1809.84,1154.51a467.084,467.084,0,0,0,52.61,120.79l-347.48,93.1a467,467,0,0,0-14.79-130.94c-11.54-44.39-30.11-88.9-56.53-133.54l348.3-93.32c-.54,51.76,5.67,99.6,17.89,143.91Z" style="fill: rgb(102, 0, 0);"></path>
    <path id="Path_27" data-name="Path 27" d="M1429.65,1147.32,721.09,1337.17a27.494,27.494,0,0,0-3.26.89c-85.05,24.51-95.23,137.85-21.99,180.15a98.433,98.433,0,0,0,73.17,10.42,25.574,25.574,0,0,0,3.15-.83l709.31-190.06a431.836,431.836,0,0,0-13.55-91.89,471.233,471.233,0,0,0-38.28-98.53Z" style="fill: rgb(102, 0, 0);"></path>
    <path id="Path_28" data-name="Path 28" d="M1207.66,2135.3a26.67,26.67,0,1,0,0,53.34h1118.8a26.67,26.67,0,0,0,0-53.34H1207.66Z" style="fill: rgb(102, 0, 0);"></path>
    <path id="Path_29" data-name="Path 29" d="M2220.91,2188.64h-907.7a26.669,26.669,0,0,1-26.67-26.67V1963.54a26.669,26.669,0,0,1,26.67-26.67h907.7a26.669,26.669,0,0,1,26.67,26.67v198.43A26.669,26.669,0,0,1,2220.91,2188.64Z" style="fill: rgb(102, 0, 0);"></path>
    <path id="Path_30" data-name="Path 30" d="M1401.87,1738.44h721.94a26.669,26.669,0,0,1,26.67,26.67v138.43H1375.2V1765.11a26.669,26.669,0,0,1,26.67-26.67Z" style="fill: rgb(102, 0, 0);"></path>
  </g>
</svg>